<svg xmlns="http://www.w3.org/2000/svg" style="isolation:isolate" viewBox="100.842 72 243.886 302.013" width="325.181" height="402.684"><defs><clipPath id="a"><path d="M100.842 72h243.886v302.013H100.842z"/></clipPath></defs><g clip-path="url(#a)"><path d="M139 240c0-23.732 19.268-43 43-43s43 19.268 43 43-19.268 43-43 43-43-19.268-43-43Zm-38 119c-1.687 5.45 10.681 15.418 12 15l139-1c4.289-1.328 12.727-6.391 12-16-12.562-45.023-47.667-67-84-67s-74.667 27.667-79 69Zm126-63c18.136 7.845 31.813 24.855 41 47l62-.238c1.656-.007 4.069-.827 5.385-1.832 4.893-3.734 8.903-8.474 9.286-11.948.182-1.646-.085-4.261-.596-5.836-9.88-30.493-34.86-48.806-66.075-50.146-20.875.5-35.333 6-51 23Zm15.5-63.5c0-19.593 15.907-35.5 35.5-35.5s35.5 15.907 35.5 35.5S297.593 268 278 268s-35.5-15.907-35.5-35.5ZM153 106h84c5.519 0 10 4.481 10 10v40c0 5.519-4.481 10-10 10h-54.75l-21.737 19.046c-2.491 2.182-3.997 1.316-3.361-1.934L160.5 166H153c-5.519 0-10-4.481-10-10v-40c0-5.519 4.481-10 10-10Zm19-5.75V86c0-7.727 6.273-14 14-14h113.5c7.727 0 14 6.273 14 14v57c0 7.727-6.273 14-14 14h-8.875l6.462 26.232c1.056 4.287-.753 5.371-4.036 2.419L261.188 157h-8.938v-42.75c0-7.727-6.273-14-14-14H172Z" fill-rule="evenodd" fill="#777"/></g></svg>