<?xml version="1.0" encoding="UTF-8" standalone="no"?><!-- Generator: Gravit.io --><svg xmlns="http://www.w3.org/2000/svg" xmlns:xlink="http://www.w3.org/1999/xlink" style="isolation:isolate" viewBox="0 0 398.889 283.044" width="398.889pt" height="283.044pt"><defs><clipPath id="_clipPath_bCZLtx15JlUzvrIXTMzqE9RNM6EyJeZU"><rect x="0" y="0" width="398.889" height="283.044"/></clipPath></defs><g clip-path="url(#_clipPath_bCZLtx15JlUzvrIXTMzqE9RNM6EyJeZU)"><clipPath id="_clipPath_qm0hddNJbQB92upL97zcyurXBOIssder"><path d=" M 0 0 L 398.889 0 L 398.889 283.044 L 0 283.044 L 0 0 Z " fill="rgb(255,255,255)"/></clipPath><g clip-path="url(#_clipPath_qm0hddNJbQB92upL97zcyurXBOIssder)"><g><path d=" M 98.144 258.261 C 101.099 258.957 28.317 289.441 10.839 281.824 C 10.276 280.427 69.287 242.433 56.792 235.67 C 21.661 210.652 0 176.443 0 138.744 C 0 62.168 89.368 0 199.444 0 C 309.52 0 398.889 62.168 398.889 138.744 C 398.889 215.32 309.52 277.488 199.444 277.488 C 162.476 277.488 127.842 270.475 98.144 258.261 Z  M 105.142 141.523 C 105.142 131.95 112.914 124.18 122.485 124.18 C 132.056 124.18 139.828 131.95 139.828 141.523 C 139.828 151.094 132.056 158.866 122.485 158.866 C 112.914 158.866 105.142 151.094 105.142 141.523 Z  M 259.061 141.523 C 259.061 131.95 266.833 124.18 276.404 124.18 C 285.975 124.18 293.747 131.95 293.747 141.523 C 293.747 151.094 285.975 158.866 276.404 158.866 C 266.833 158.866 259.061 151.094 259.061 141.523 Z  M 182.101 141.523 C 182.101 131.95 189.873 124.18 199.444 124.18 C 209.016 124.18 216.787 131.95 216.787 141.523 C 216.787 151.094 209.016 158.866 199.444 158.866 C 189.873 158.866 182.101 151.094 182.101 141.523 Z " fill-rule="evenodd" fill="#888"/></g></g></g></svg>